<svg id="Layer_1" data-name="Layer 1" xmlns="http://www.w3.org/2000/svg" viewBox="0 0 1662.48 960.01"><defs><style>.cls-1,.cls-2{fill:none;stroke:#a8a8a8;}@media (prefers-color-scheme: dark){.cls-1,.cls-2{fill:none;stroke:#003ec9;}}.cls-1{stroke-width:0.2px;}.cls-2{stroke-width:0.3px;}</style></defs><path class="cls-1" d="M312.74,585.46l-132,250.24L431,967.65,563,717.41ZM415,915.79,232.75,819.7l96.09-182.24,182.23,96.09Z" transform="translate(-25.52 -7.77)"/><path class="cls-1" d="M1473.53,165.63l53.35,161,161-53.35-53.35-161Zm185.26,93-117.24,38.85-38.86-117.24,117.25-38.85Z" transform="translate(-25.52 -7.77)"/><path class="cls-2" d="M1380.88,758a104.79,104.79,0,1,0,104.79,104.78A104.78,104.78,0,0,0,1380.88,758Zm0,181.79a77,77,0,1,1,77-77A77,77,0,0,1,1380.88,939.79Z" transform="translate(-25.52 -7.77)"/><path class="cls-2" d="M186.88,17.15,162.45,8l-35.37,94L34.91,67.27,25.71,91.7l92.18,34.69L83.53,217.84,108,227l34.37-91.45,93.3,35.11,9.16-24.49-93.27-35Z" transform="translate(-25.52 -7.77)"/></svg>