<?xml version="1.0" encoding="UTF-8"?>
<svg id="Capa_2" data-name="Capa 2" xmlns="http://www.w3.org/2000/svg" xmlns:xlink="http://www.w3.org/1999/xlink" viewBox="0 0 745.54 307.28">
  <defs>
    <style>
      .cls-1 {
        fill: none;
      }

      .cls-1, .cls-2 {
        stroke-width: 0px;
      }

      .cls-3 {
        clip-path: url(#clippath);
      }

      .cls-4 {
        font-family: Amsterdam, Amsterdam;
        font-size: 30.11px;
      }

      .cls-4, .cls-2 {
        fill: #fff;
      }
    </style>
    <clipPath id="clippath">
      <rect class="cls-1" x="76.41" y="118.75" width="292.25" height="182.49"/>
    </clipPath>
  </defs>
  <g id="Capa_1-2" data-name="Capa 1">
    <g>
      <path class="cls-2" d="M428.16,274.33c-.22.67-.45,1.26-.7,1.75-.66,1.09-1.5,1.83-2.53,2.23-1.03.4-2,.49-2.9.29-.02-.02-.04-.02-.06-.02-.23-.07-.46-.11-.67-.12s-.44.07-.65.23c-.11.09-.26.14-.44.15-.04,0-.07.01-.1.02-.76.12-1.22-.19-1.36-.96-.15-.77-.28-1.53-.4-2.27-.17-.91-.35-1.81-.54-2.7-.69-3.44-1.28-6.92-1.79-10.42-.5-3.5-.98-7.01-1.42-10.52-.03-.34-.07-.68-.12-1.02-.11-.79-.18-1.78-.21-2.98-.03-1.2.01-2.36.13-3.49.12-1.13.35-1.98.7-2.55.3-.62.72-1.06,1.29-1.3.56-.24,1.13-.31,1.72-.21.58.1,1.06.34,1.43.71.8.9,1.38,2.27,1.72,4.1.34,1.83.52,3.91.52,6.22s-.1,4.66-.31,7.01c-.21,2.36-.47,4.51-.78,6.47-.31,1.95-.63,3.48-.96,4.59.77-.63,1.41-1.05,1.91-1.26.5-.21,1.1-.32,1.79-.32,2.37-.09,3.93.99,4.7,3.23.02.11.03.2.05.29.03.08.06.17.07.24.09.31.18.56.26.75.08.18.62.04,1.6-.44.98-.48,1.68-.96,2.09-1.46.41-.49.69-.72.82-.67.58.45.3,1.21-.84,2.27-1.12.95-2.46,1.66-4.01,2.16ZM419.01,266.74c.07-.08.18-.96.34-2.65.16-1.68.29-3.76.38-6.22.09-2.46.09-4.92-.01-7.36s-.38-4.46-.84-6.07c-.23-.87-.48-1.55-.76-2.07-.28-.51-.53-.66-.76-.45-.23.21-.38.95-.47,2.21-.13,1.88-.03,4.39.29,7.53.33,3.15.69,6.24,1.1,9.28.31,2.33.55,4.26.72,5.78ZM425.85,272.57c-.08-.75-.38-1.44-.9-2.05-.52-.62-1.1-.98-1.75-1.09-.65-.11-1.21.2-1.69.93-.33.63-.49,1.42-.48,2.36.01.95.11,1.89.28,2.82.64-.5,1.3-.95,1.97-1.33.67-.38,1.38-.68,2.13-.89.17-.05.29-.14.37-.28.08-.14.1-.3.07-.47ZM423.21,276.74c-.03.29.06.43.29.4.22-.03.5-.15.82-.36.32-.22.59-.47.82-.77.22-.3.3-.59.24-.87,0-.02-.02-.04-.05-.05-.03-.01-.06-.02-.09-.01-.38.04-.72.17-1.01.39-.29.22-.56.48-.8.78-.11.15-.18.31-.22.5Z"/>
      <path class="cls-2" d="M448.45,269.01c.34-.03.43.12.26.48-.17.36-.48.82-.94,1.4s-.95,1.18-1.48,1.81c-.72.84-1.29,1.56-1.72,2.16-.49.58-.84,1.33-1.06,2.24-.21.92-.26,1.74-.14,2.47.06.39.14.85.22,1.38.19,1.08.41,2.38.63,3.91.23,1.53.4,3.12.51,4.77.11,1.65.09,3.22-.07,4.71-.16,1.49-.53,2.75-1.11,3.77-.58,1.02-1.42,1.67-2.53,1.94-2.15.41-3.77-.25-4.88-1.96-.87-1.46-1.34-3.02-1.4-4.69s.14-3.34.59-5.01c.46-1.67,1.03-3.24,1.71-4.69.68-1.45,1.35-2.68,1.99-3.7.64-1.01,1.11-1.7,1.4-2.05.07-.51.06-1.08-.02-1.73-.08-.64-.18-1.26-.29-1.86-.06-.19-.1-.36-.13-.5-.32.73-.68,1.26-1.1,1.6-.41.34-.85.56-1.3.66-.46.1-.89.16-1.3.17-.04,0-.08.01-.12.02-.96.03-1.77-.29-2.44-.96-.66-.67-1.16-1.47-1.47-2.41s-.42-1.82-.3-2.63c.12-.81.48-1.33,1.1-1.56.25-.11.54-.19.85-.24s.59-.05.82,0c.23.05.33.2.3.44-.07.82-.04,1.7.08,2.63s.33,1.72.63,2.37c.3.65.7.96,1.19.94.5-.03,1.08-.58,1.74-1.64.31-.56.49-1.11.55-1.65.06-.54.09-1.12.08-1.73-.01-.22-.02-.43,0-.66-.02-.22-.02-.43-.02-.65-.02-.29-.03-.57-.03-.84.03-.46.23-.81.6-1.05.36-.24.79-.29,1.28-.15.25.1.42.27.5.51.13.49.23.97.31,1.45.25,1.73.58,3.85.99,6.36.03-.02.21-.24.55-.64.44-.56.99-1.23,1.68-2.01.68-.79,1.33-1.5,1.95-2.13.62-.64,1.05-.99,1.31-1.05ZM441.38,285.29c-.04-.23-.06-.48-.07-.73-.13-.92-.25-1.86-.37-2.8,0-.04-.03-.09-.07-.14-.04-.06-.08-.1-.14-.12-.12-.06-.21-.06-.28,0-.06.07-.12.13-.18.2-.7,1.29-1.33,2.73-1.88,4.32-.55,1.59-.92,3.2-1.11,4.85-.19,1.65-.12,3.22.2,4.72.22.93.66,1.74,1.32,2.44.78.78,1.39,1,1.83.68.44-.32.74-1,.92-2.02s.26-2.21.26-3.55-.04-2.65-.13-3.93c-.09-1.27-.17-2.33-.23-3.17-.03-.29-.05-.53-.06-.75Z"/>
    </g>
    <text class="cls-4" transform="translate(437.71 278.24) rotate(-9.23)"><tspan x="0" y="0" xml:space="preserve">   </tspan></text>
    <g>
      <path class="cls-2" d="M521.22,256.34c.1-.05.38-.16.85-.35.71-.24,1.55-.54,2.55-.88.99-.34,1.87-.61,2.64-.8.77-.19,1.17-.19,1.2,0-.08.17-.53.46-1.35.85-.82.4-1.79.81-2.92,1.26-1.13.44-2.17.85-3.13,1.21-.96.36-1.6.61-1.93.73-.69.24-1.16.69-1.42,1.35-2.37,4.79-5.29,9.22-8.76,13.28-2.54,3.03-5.35,5.78-8.45,8.25-1.2.98-2.45,1.87-3.74,2.67-1.29.8-2.65,1.49-4.09,2.07-1.35.53-2.75.84-4.2.95-1.71.1-2.99-.33-3.84-1.3-.85-.96-1.14-2.3-.87-4,.22-1.07.62-2.05,1.19-2.95.88-1.46,1.93-2.78,3.12-3.98,1.64-1.65,3.38-3.17,5.23-4.56.15-.11.31-.22.47-.33.2-.14.39-.3.58-.47.28-.19.39-.46.33-.8-.01-.21-.04-.44-.08-.67-.05-.32-.11-.65-.16-1-.67-4.1-1.34-8.22-2.01-12.35-.91-5.57-1.81-11.16-2.72-16.76,0-.04-.01-.09-.03-.16-.08-.49-.15-.99-.21-1.5,0-.53.32-.85.96-.98.62-.08,1.01.14,1.15.66.12.44.21.89.27,1.36.02.11.03.2.05.29.74,4.45,1.46,8.9,2.17,13.35.79,4.88,1.6,9.76,2.41,14.65.03.18.05.36.06.54.09.84.23,1.29.44,1.36.21.07.73-.18,1.55-.73.04-.03.09-.06.15-.1,4.94-3.1,10.14-5.66,15.6-7.7,1.24-.42,2.09-1.25,2.55-2.48,1.08-2.86,1.91-5.86,2.47-9.01.56-3.15.79-6.23.7-9.23s-.58-5.72-1.46-8.16c-.88-2.44-2.2-4.37-3.97-5.81-1.77-1.44-4.06-2.16-6.85-2.16s-6.16.92-10.1,2.78c-2,.9-4.18,2.12-6.53,3.66s-4.72,3.3-7.09,5.29c-2.37,1.99-4.57,4.09-6.59,6.31-2.03,2.22-3.72,4.46-5.07,6.71-1.35,2.25-2.2,4.42-2.53,6.51-.09.64-.46,1-1.1,1.09-.34.05-.6,0-.8-.18-.19-.18-.28-.43-.27-.76.11-.8.32-1.58.64-2.32.75-1.81,1.67-3.52,2.77-5.14,2.79-4.23,6.35-8.27,10.68-12.12,4.33-3.85,8.75-6.96,13.26-9.33,4.18-2.12,7.88-3.35,11.08-3.7,3.21-.35,5.94.03,8.21,1.14,2.27,1.1,4.07,2.78,5.4,5.02,1.33,2.24,2.21,4.88,2.64,7.93.43,3.04.41,6.32-.05,9.84-.47,3.52-1.38,7.11-2.72,10.79-.28.76-.34,1.19-.16,1.28.18.09.53.03,1.06-.19.23-.08.49-.15.79-.22ZM514.15,261.91c.05-.1.1-.19.15-.26.27-.37.42-.8.45-1.28-.19-.1-.36-.13-.53-.09-.17.04-.34.09-.5.16-.06.03-.12.06-.18.1-2.55,1.11-5.06,2.3-7.53,3.56-2.47,1.27-4.88,2.67-7.24,4.2-.16.12-.31.22-.44.31-.4.23-.68.43-.86.59-.17.16-.26.35-.27.56,0,.21.03.51.12.91.03.21.08.47.12.77.05.45.12.88.21,1.31.07.43.13.87.19,1.33.07.43.11.86.13,1.29-.01.59-.32.92-.91,1-.65.06-1.04-.25-1.18-.92-.16-.74-.3-1.47-.42-2.2-.08-.51-.16-1.01-.24-1.49-.12-.51-.39-.62-.81-.33-1.3.99-2.53,2.06-3.69,3.18-1.16,1.13-2.21,2.36-3.15,3.69-.59.84-1.03,1.74-1.33,2.7-.24.78-.31,1.58-.21,2.4.25,1.36,1.05,2.1,2.4,2.23.83.06,1.63-.06,2.4-.36,1.48-.55,2.89-1.23,4.22-2.05,1.33-.82,2.61-1.73,3.82-2.73,3.16-2.57,6-5.41,8.52-8.53,2.52-3.12,4.77-6.47,6.74-10.03Z"/>
      <path class="cls-2" d="M542.54,253.59c-.13.86-.51,1.87-1.13,3.05-.62,1.18-1.49,2.01-2.62,2.51-1.13.49-2.16.62-3.08.37-.92-.24-1.56-1.19-1.92-2.84-.67,2.06-1.4,3.42-2.2,4.1-.8.68-1.69,1.03-2.67,1.06-1.11,0-1.91-.3-2.4-.91-.49-.61-.74-1.36-.76-2.25-.02-.9.11-1.78.39-2.65.22-.65.57-1.28,1.06-1.88.48-.61,1.01-1.1,1.58-1.49.7-.51,1.44-.82,2.22-.93.78-.11,1.65.01,2.61.37.02.02.03,0,.02-.06-.01-.09-.01-.2.01-.34.02-.14.08-.25.17-.35.26-.26.58-.42.98-.49s.73.09,1.01.45c.12.51.17,1.17.16,1.99-.04,1.79.17,3.05.61,3.76s1.06.98,1.86.79c.8-.18,1.72-1.15,2.75-2.9,1.04-1.75,1.49-2.2,1.35-1.35ZM528.92,260c.5.25,1,.12,1.51-.38.51-.5.97-1.17,1.38-2,.41-.83.74-1.65.98-2.45.24-.8.35-1.39.33-1.75-1.18-.4-2.12-.35-2.83.16-.71.51-1.23,1.23-1.55,2.17-.32.94-.46,1.83-.41,2.66.05.83.24,1.36.59,1.6Z"/>
      <path class="cls-2" d="M550.85,252.76c.12-.41.22-.6.29-.58.07.02.11.17.12.45s0,.6-.03.97c-.04.55-.16,1.2-.35,1.96s-.44,1.44-.72,2.08c-.43.88-1.03,1.6-1.79,2.13-.76.54-1.5.76-2.2.66-.71-.09-1.2-.66-1.48-1.71-.16-.89-.25-1.88-.24-2.97-.01-.45-.02-.9-.02-1.34-.02-.15-.08-.27-.17-.34-.09-.07-.2-.08-.32-.04-.09.01-.18.03-.29.05-.52.17-1.06.25-1.63.23-.69-.08-1.12-.35-1.3-.79s-.27-1.05-.27-1.81c-.02-.54.12-.97.4-1.29.29-.32.66-.49,1.11-.51.63-.04.97.15,1.01.56.05.42,0,.88-.13,1.39-.13.43-.18.78-.14,1.04.03.27.28.33.73.17.1-.05.21-.1.33-.16.16-.1.35-.19.57-.28s.5-.15.86-.18c.43-.05.74.1.95.45.2.35.34.81.41,1.37s.11,1.14.12,1.74c.01.74.06,1.37.14,1.89.08.52.28.8.6.83.41.04.95-.42,1.6-1.37.65-.96,1.27-2.49,1.85-4.6Z"/>
      <path class="cls-2" d="M564.78,250.47c.25-.3.43-.45.54-.46.11,0,.16.06.16.22,0,.16-.05.33-.15.54-.24.53-.57,1.08-.98,1.66-.41.58-.71.98-.89,1.21-1.23,1.53-2.41,2.44-3.55,2.74s-2.17.22-3.12-.23-1.74-1.01-2.39-1.67c-.65-.67-1.08-1.2-1.32-1.6-.05.14-.05.42,0,.85.05.43.12.93.22,1.51.07.57.14,1.14.21,1.69.07.56.08,1.01.05,1.38-.02.7-.38,1.06-1.09,1.08-.5.02-.83-.19-.97-.63-.08-.28-.15-.58-.2-.88-.1-.64-.21-1.27-.31-1.89-.4-2.56-.78-5.11-1.14-7.65-.2-1.23-.46-3.18-.77-5.86-.32-2.68-.58-5.53-.8-8.54-.22-3.01-.28-5.63-.18-7.85.04-.88.19-1.73.47-2.56.28-.82.83-1.41,1.64-1.76.35-.14.72-.13,1.11.03s.77.53,1.15,1.12c.38.63.64,1.31.79,2.03.32,1.61.46,3.68.41,6.22-.04,2.54-.18,5.19-.41,7.96-.23,2.77-.46,5.3-.7,7.59-.14,1.29-.25,2.41-.35,3.33.19-.51.45-1.09.79-1.75.34-.66.69-1.19,1.04-1.61.83-.92,1.88-1.36,3.15-1.33,1.41.08,1.96.79,1.63,2.13-.39,1.2-.96,2.15-1.71,2.88-.75.72-1.49,1.31-2.22,1.75,1.01,1.02,2.09,1.79,3.25,2.3.81.3,1.64.24,2.49-.2.85-.44,1.64-1.02,2.37-1.76.73-.74,1.33-1.41,1.77-2.01ZM550.11,226.74c.02,2.46.19,5.54.5,9.24.31,3.7.6,6.74.88,9.12.2-1.02.35-2.69.46-5.02.1-2.33.16-4.74.17-7.22.01-2.48-.02-4.48-.09-5.97-.09-1.64-.28-2.69-.59-3.14-.3-.45-.59-.41-.87.12-.28.54-.43,1.5-.46,2.88ZM553.04,251.29c.09.03.33-.05.7-.24.37-.2.78-.45,1.22-.76.44-.31.79-.65,1.03-1.02.59-.93.83-1.54.71-1.82-.12-.28-.4-.35-.84-.19s-.84.45-1.2.89c-.41.54-.79,1.13-1.14,1.76-.35.63-.51,1.09-.48,1.38Z"/>
      <path class="cls-2" d="M608.71,241.59c.21-.05.33.09.37.44s-.07.55-.32.61c-.24.08-.44.23-.6.46-.17.22-.23.45-.19.69.39,2.05.45,4.08.17,6.08-.28,2-.76,3.97-1.45,5.9-1.34,3.99-3.16,7.64-5.46,10.96-2.3,3.31-5.15,6.25-8.53,8.82-1.87,1.4-3.84,2.54-5.92,3.42-2.08.88-4.29,1.45-6.63,1.69-1.95.21-3.86-.02-5.71-.67-2.22-.87-3.81-2.22-4.77-4.04-.96-1.82-1.17-3.88-.63-6.2.6-2.26,1.75-4.47,3.47-6.61,1.72-2.15,3.79-4.2,6.21-6.16,2.42-1.96,4.99-3.76,7.7-5.4,2.71-1.64,5.34-3.09,7.89-4.36,2.56-1.26,4.84-2.28,6.86-3.04.55-.23,1.09-.44,1.62-.64.58-.2,1.15-.42,1.7-.63.48-.17.61-.46.39-.88-.83-1.96-2.09-3.56-3.8-4.79-1.23-.87-2.53-1.57-3.89-2.09-1.36-.52-2.77-.91-4.24-1.18-4.39-.8-8.82-.93-13.28-.39-.3.02-.62.06-.94.11-.35.09-.51.31-.47.67.02.43.07.86.13,1.29.52,3.34,1.06,6.69,1.6,10.03.22,1.47.45,2.96.69,4.45.02.11.03.2.04.28.04.21.07.43.1.64.05.98-.39,1.39-1.33,1.25-.37-.05-.59-.25-.66-.59-.12-.48-.21-.96-.27-1.46-.51-3.01-1.01-6.02-1.5-9.02-.25-1.52-.49-3.02-.73-4.51-.02-.13-.04-.25-.06-.38-.06-.36-.13-.73-.21-1.11-.07-.41-.17-.66-.31-.77s-.4-.14-.78-.1c-.17.03-.33.05-.48.08-.41.04-.81.07-1.21.09-.34.02-.61-.12-.78-.42-.17-.39-.12-.74.16-1.05.37-.41.76-.81,1.17-1.2.17-.16.33-.29.47-.4.32-.29.55-.52.68-.7.13-.18.2-.36.21-.55,0-.19-.03-.5-.09-.9-.07-.23-.13-.5-.18-.82-.36-2.41-.74-4.84-1.14-7.26-.22-1.33-.44-2.68-.66-4.05,0-.02,0-.05-.02-.1-.08-.46-.13-.92-.16-1.37-.06-.59.24-.92.88-1.01.62-.12,1.01.09,1.19.62.13.56.24,1.12.33,1.69.24,1.45.47,2.9.71,4.34.29,1.77.59,3.52.9,5.26,0,.13,0,.25.01.36.04.5.21,1.05.51,1.66,1.27-1.04,2.8-2.34,4.59-3.91,1.79-1.57,3.6-3.23,5.43-4.99,1.83-1.76,3.43-3.49,4.8-5.17,1.36-1.69,2.26-3.19,2.68-4.5.43-1.49-.05-2.58-1.45-3.26-1.72-.79-3.81-1.04-6.29-.74-2.47.3-5.02.99-7.65,2.05-2.63,1.06-5.02,2.34-7.19,3.82s-3.81,3.03-4.94,4.63c-.35.52-.65,1.13-.89,1.8-.24.68-.41,1.35-.5,2-.08.41-.33.68-.75.81-.42.13-.8.07-1.15-.18-.18-.19-.26-.41-.24-.67.08-.76.3-1.47.68-2.15,1.19-2.18,3.06-4.22,5.61-6.12,2.54-1.9,5.38-3.48,8.5-4.75,3.12-1.27,6.16-2.08,9.09-2.43,2.94-.35,5.4-.07,7.38.84,2.03.95,2.68,2.49,1.96,4.63-.37,1.06-.99,2.18-1.86,3.36-.87,1.18-1.81,2.32-2.82,3.41-1.01,1.09-1.92,2.04-2.71,2.84-1.44,1.46-2.93,2.87-4.48,4.25-1.54,1.38-3.11,2.73-4.69,4.06-.04.03-.07.06-.12.11-.79.63-1.56,1.29-2.3,1.95-.52.54-.6,1.17-.25,1.87.03.07.09.13.18.19.09.06.17.08.25.07.36.01.71-.01,1.05-.07.02,0,.05,0,.09-.01,4.63-.62,9.24-.56,13.84.18,2.54.37,4.98,1.12,7.31,2.25,1.4.69,2.64,1.53,3.71,2.54,1.07,1.01,1.94,2.22,2.6,3.64.21.46.42.73.62.81.2.08.57.03,1.13-.15ZM605.86,245.79c-.05-.89-.2-1.41-.45-1.57-.24-.16-.79-.06-1.64.3-2.01.76-4.26,1.74-6.75,2.94-2.49,1.19-5.03,2.57-7.62,4.13-2.59,1.56-5.04,3.26-7.36,5.11-2.32,1.85-4.31,3.81-5.98,5.89s-2.81,4.24-3.45,6.5c-.45,1.71-.52,3.27-.23,4.68.29,1.41.85,2.57,1.69,3.5.83.92,1.82,1.51,2.97,1.76,1.47.31,2.95.36,4.45.17.11-.02.2-.04.29-.08.21-.06.42-.11.63-.15,2.76-.73,5.29-1.92,7.58-3.58,4.18-2.99,7.55-6.52,10.1-10.59s4.36-8.6,5.43-13.59c.36-1.79.48-3.59.34-5.4Z"/>
      <path class="cls-2" d="M627.3,239.82c-.13.86-.51,1.87-1.13,3.05-.62,1.18-1.49,2.01-2.62,2.5-1.13.49-2.16.62-3.08.37-.92-.24-1.56-1.19-1.92-2.84-.67,2.06-1.4,3.42-2.2,4.1-.8.68-1.69,1.03-2.67,1.06-1.11,0-1.91-.3-2.4-.91-.49-.61-.74-1.36-.76-2.25-.02-.89.11-1.78.39-2.65.22-.65.57-1.28,1.06-1.88.48-.61,1.01-1.1,1.58-1.49.7-.51,1.44-.82,2.22-.93.78-.11,1.65.02,2.61.37.02.02.03,0,.02-.06-.01-.09-.01-.2.01-.34.02-.14.08-.25.17-.35.26-.26.58-.42.98-.49.4-.06.73.08,1.01.45.12.51.17,1.17.16,1.99-.04,1.79.17,3.05.61,3.76.44.71,1.07.98,1.86.79.8-.18,1.72-1.15,2.75-2.9,1.04-1.75,1.49-2.2,1.35-1.35ZM613.68,246.24c.5.25,1,.12,1.51-.38.51-.5.97-1.17,1.38-2,.41-.83.74-1.65.98-2.45.24-.8.35-1.39.33-1.75-1.18-.41-2.12-.35-2.83.16s-1.23,1.23-1.55,2.17c-.32.94-.46,1.83-.41,2.66.04.83.24,1.36.59,1.59Z"/>
      <path class="cls-2" d="M636.99,238.74c.45-.6.66-.77.63-.5-.03.27-.25.78-.65,1.54-.4.76-.92,1.59-1.56,2.5-.64.91-1.33,1.72-2.09,2.43-.76.71-1.52,1.16-2.27,1.33-.94.15-1.74,0-2.39-.47s-1.18-1.13-1.57-2.01c-.39-.88-.65-1.85-.79-2.92-.14-1.2-.29-2.39-.45-3.59-.08-.6-.15-1.19-.23-1.77-.11-.97-.23-1.93-.36-2.89-.03-.3-.12-.55-.27-.73-.15-.18-.38-.26-.68-.23-.34.04-.77.1-1.28.18-.44.07-.83.13-1.15.19-.45.02-.77-.05-.95-.21-.18-.16-.09-.37.26-.63.25-.15.57-.26.95-.33.38-.07.76-.13,1.13-.17.24-.02.44-.04.61-.07.57-.09.9-.24,1-.44.1-.2.12-.57.06-1.11-.05-.57-.12-1.14-.19-1.71-.03-.3-.05-.61-.07-.91-.07-.45-.02-.87.15-1.26.2-.38.49-.56.89-.55.35.03.58.21.67.55.12.56.23,1.12.32,1.69.07.32.12.63.16.96.05.34.12.69.2,1.05.06.51.17.81.33.92.16.11.5.12,1.03.03.87-.14,1.73-.28,2.58-.42.39-.06,1.53-.28,3.44-.64,1.91-.36,2.96-.38,3.17-.04s-.97.75-3.53,1.22c-1.54.34-2.74.58-3.59.72-.58.07-1.09.15-1.54.22-.76.12-1.21.33-1.35.63-.14.3-.13.84.02,1.64.09.69.19,1.53.3,2.51.2,2.02.47,4.08.81,6.16.28,1.42.69,2.31,1.22,2.66.53.35,1.15.33,1.85-.05.7-.39,1.43-.99,2.19-1.81.75-.82,1.49-1.7,2.22-2.62.14-.27.33-.54.56-.79.08-.09.15-.18.21-.26Z"/>
      <path class="cls-2" d="M654.85,237.51v-.03c.07-.1.25-.33.53-.67.28-.35.58-.68.9-1.01.32-.32.56-.51.71-.55.16-.04.16.21,0,.74-.03.07-.07.16-.14.27s-.12.21-.16.3c-.03.02-.05.05-.06.08-1.23,1.84-2.22,3.13-2.96,3.88-.74.75-1.53,1.17-2.36,1.27-.87.05-1.5-.19-1.89-.71s-.65-1.21-.78-2.03c-.12-.83-.19-1.68-.21-2.55,0-.9-.07-1.66-.2-2.28-.13-.62-.4-.95-.82-.99-.38.03-.72.41-1.01,1.12-.29.72-.54,1.54-.76,2.46-.22.92-.4,1.73-.53,2.42-.07.38-.12.65-.15.81-.12.37-.33.63-.63.79-.3.16-.64.19-1.03.11-.24-.1-.4-.26-.48-.49-.14-.5-.25-1.03-.32-1.59-.04-.36-.09-.71-.17-1.04-.01-.09-.03-.19-.05-.32-.03-.17-.06-.35-.08-.51-.03-.17-.07-.32-.12-.44-.06-.12-.14-.18-.24-.16-.17,0-.34.24-.5.69-.17.46-.33.99-.48,1.6-.15.62-.28,1.17-.4,1.67-.11.43-.18.73-.21.88-.02.07-.04.15-.07.22-.13.41-.26.82-.39,1.24-.11.35-.36.58-.74.7-.76.26-1.24.01-1.43-.75-.38-1.96-.75-3.93-1.12-5.91-.08-.51.21-.75.87-.7.66.05,1.07.32,1.22.82.19.82.36,1.23.49,1.22.13-.01.34-.42.63-1.23.16-.39.32-.79.49-1.2.19-.53.5-1.01.91-1.46.43-.4.88-.57,1.35-.51.47.06.88.34,1.22.85.14.21.27.32.38.33.11,0,.21-.06.3-.2.09-.13.17-.29.25-.47.06-.19.13-.35.22-.5.49-.75,1.13-1.33,1.92-1.72s1.54-.5,2.25-.34c.72.17,1.21.71,1.46,1.63.22,1.12.33,2.28.33,3.48.01.57.04,1.12.07,1.63.14,1.1.43,1.67.89,1.7.45.04.96-.22,1.51-.78.56-.55,1.09-1.14,1.59-1.77Z"/>
      <path class="cls-2" d="M672.78,232.24c-.16.57-.42,1.17-.79,1.8-1.05,1.83-2.12,3.04-3.2,3.62-1.08.58-2.16.75-3.23.5-1.08-.25-1.81-1.2-2.18-2.85-.67,2.05-1.4,3.42-2.2,4.1s-1.67,1.03-2.62,1.05c-1.14,0-1.95-.29-2.43-.9-.48-.61-.73-1.36-.74-2.26-.01-.9.12-1.78.38-2.65.22-.65.57-1.28,1.04-1.88.47-.6,1-1.1,1.6-1.5.68-.51,1.41-.82,2.19-.92.78-.11,1.65.02,2.61.37.02.02.03,0,.02-.06-.01-.09-.01-.2.01-.34.02-.14.08-.25.17-.35.26-.26.59-.42.99-.49s.75.08,1.03.44c.12.51.17,1.17.13,1.99-.04,1.79.14,3.02.52,3.69.38.67.95.91,1.72.73.77-.18,1.57-.79,2.41-1.84.75-.98,1.45-2.61,2.08-4.9-.04-.25.03-.44.22-.57s.42-.22.7-.26c.23-.04.45-.01.64.07.2.09.36.31.49.67.02.13.07.32.14.6.07.27.13.51.16.72.08.31.14.53.19.64.05.11.14.09.27-.06.13-.15.32-.49.56-1.01.41-.94.97-1.77,1.67-2.49.66-.65,1.44-1.01,2.34-1.07.8-.05,1.37.27,1.73.96.18.35.31.71.37,1.08.06.37.1.75.11,1.14.02.39.05.8.08,1.21,0,.13,0,.26.02.38.08,1.41.26,2.33.55,2.76.29.44.89.4,1.8-.11.91-.51,1.5-1.65,1.78-3.42.15-.98.31-1.08.48-.32.17.77.08,1.61-.28,2.52-.35.91-.85,1.67-1.5,2.27-.85.82-1.69,1.24-2.53,1.25-.84.01-1.48-.37-1.92-1.15-.44-.78-.7-1.81-.75-3.09l-.03-.16c.01-.22.01-.54,0-.97-.01-.42-.05-.86-.1-1.31-.05-.45-.13-.81-.24-1.09-.11-.28-.25-.36-.43-.24-.47.36-.88,1-1.25,1.89-.37.9-.67,1.83-.9,2.78-.24.96-.41,1.73-.51,2.31-.04.18-.07.38-.1.58l-.14.8c-.18.77-.64,1.14-1.36,1.08-.4-.02-.65-.23-.75-.61-.08-.29-.15-.58-.21-.84l-.08-.48c-.23-1.27-.46-2.55-.71-3.82ZM658.53,238.62c.51.24,1.01.12,1.52-.38.5-.5.96-1.16,1.37-2,.41-.83.74-1.65.98-2.45.24-.8.36-1.39.35-1.76-1.19-.4-2.14-.35-2.85.16-.71.51-1.23,1.23-1.55,2.17-.32.94-.46,1.83-.42,2.66.04.83.24,1.36.6,1.59Z"/>
      <path class="cls-2" d="M712.66,224.38c.29-.22.6-.39.91-.52.32-.13.57-.2.77-.19.19,0,.26.07.21.21-.05.14-.3.37-.76.69-.76.49-1.55,1.15-2.37,1.99-.82.83-1.52,1.73-2.1,2.7-.58.97-.89,1.95-.93,2.94-.07,4.25-.51,8.47-1.29,12.66-.34,1.97-.85,3.9-1.55,5.79-.3.83-.7,1.61-1.19,2.32-.29.43-.67.73-1.16.9-.82.24-1.46.27-1.92.08-.47-.19-.87-.7-1.2-1.54-.34-1.02-.5-2.07-.45-3.14.05-2.38.44-4.71,1.16-7,.56-1.84,1.21-3.63,1.97-5.37s1.66-3.42,2.71-5.03c.26-.41.42-.82.49-1.24.07-.42.08-.84.05-1.27-.05-.54-.08-1.08-.1-1.62-.08-2.26-.24-4.53-.48-6.8-.5-4.79-1.37-9.51-2.6-14.19-.66-2.47-1.57-4.86-2.74-7.15-.52-1.08-1.21-2.04-2.06-2.88-.23-.22-.48-.42-.72-.6-.65-.49-1.23-.72-1.74-.69-.51.03-1.04.33-1.58.9-1.83,1.87-2.76,4.11-2.79,6.74,0,.96-.45,1.37-1.35,1.23-.43-.08-.69-.32-.77-.72-.08-.36-.1-.72-.08-1.11.23-2.31,1.06-4.37,2.5-6.17.63-.83,1.38-1.42,2.25-1.78.87-.36,1.82-.53,2.86-.52.59.01,1.13.14,1.63.38.5.24.97.54,1.43.9,1.12.95,2.01,2.07,2.68,3.36.72,1.3,1.33,2.64,1.82,4.02.5,1.37.92,2.77,1.28,4.19.48,2.05.91,3.98,1.3,5.79.13.69.27,1.36.43,1.99.58,4.02.95,7.72,1.11,11.13.03.43.07.86.12,1.29.01.09.04.17.07.26.03.08.1.13.21.13.07,0,.14,0,.2-.03s.11-.06.14-.08c.8-.76,1.57-1.41,2.31-1.92.42-.29.87-.62,1.36-1.01ZM705.79,237.01c.02-.2.02-.41,0-.63-.01-.09-.02-.19-.02-.29-.99,1.76-1.8,3.56-2.44,5.39-.64,1.84-1.08,3.75-1.33,5.73-.08.72-.12,1.43-.13,2.14,0,.71.08,1.41.27,2.09.02.11.05.2.1.28.05.08.13.12.24.12.2,0,.34-.08.42-.26.54-1.12.95-2.29,1.23-3.51.47-1.82.83-3.66,1.07-5.5.25-1.84.44-3.7.57-5.58Z"/>
      <path class="cls-2" d="M727.25,225.51c.55-1.3.88-2.12.96-2.47.09-.34.2-.35.34,0,.14.33.03,1.16-.34,2.47-.36,1.32-.91,2.37-1.63,3.17-.72.8-1.46,1.17-2.21,1.11-.75-.06-1.35-.47-1.79-1.25-.44-.78-.71-1.8-.78-3.08,0-.02,0-.08,0-.16-.01-.22-.03-.54-.04-.96-.01-.42-.05-.86-.09-1.31s-.12-.81-.22-1.1c-.1-.28-.25-.36-.45-.24-.47.36-.88.99-1.24,1.89-.36.9-.66,1.83-.91,2.79-.25.96-.41,1.73-.49,2.31-.04.18-.07.38-.1.58-.05.27-.1.53-.17.8-.16.77-.61,1.13-1.33,1.08-.4-.02-.67-.22-.8-.6-.07-.3-.12-.58-.17-.85-.03-.17-.06-.33-.11-.47-.39-2.14-.79-4.29-1.21-6.46-.02-.25.06-.45.25-.58.19-.13.42-.22.7-.26.21-.04.42,0,.63.08.21.08.37.31.47.67.04.12.07.25.09.37.03.07.05.13.06.19.09.29.15.55.18.76.05.32.11.53.17.64.06.11.15.09.27-.06.12-.15.3-.48.54-1.01.41-.94.98-1.77,1.7-2.5.66-.65,1.44-1.01,2.34-1.07.78-.05,1.35.27,1.73.96.17.35.28.71.34,1.08.06.37.1.75.11,1.14.04.39.08.79.11,1.2,0,.13-.01.26-.01.39.1,1.4.29,2.32.58,2.76s.64.54,1.05.31c.41-.23.89-1,1.44-2.3Z"/>
      <path class="cls-2" d="M741.24,221.7c.37-.32.62-.43.77-.35.15.09.1.36-.13.81-.7,1.19-1.62,2.34-2.77,3.45-1.14,1.11-2.32,1.97-3.54,2.58-.77.43-1.63.73-2.57.88-.66.13-1.33.14-2.04.03-1.52-.23-2.5-1.08-2.93-2.56-.24-.82-.32-1.66-.25-2.52.11-.89.4-1.7.86-2.43.46-.73,1.08-1.33,1.86-1.81.74-.43,1.53-.68,2.38-.75.85-.07,1.58.08,2.19.47.1.07.16.17.18.3.02.12.02.25-.01.39-.06.41-.21.62-.45.63-.24.01-.53-.04-.87-.15-.25-.09-.53-.16-.83-.22-.3-.06-.59-.04-.87.07-.81.26-1.43.82-1.86,1.69-.35.71-.54,1.47-.58,2.28s.14,1.5.52,2.07c.44.58,1.05.86,1.84.82.78-.04,1.64-.27,2.58-.69.93-.42,1.85-.95,2.75-1.58.9-.63,1.69-1.25,2.37-1.86.68-.61,1.14-1.12,1.37-1.54Z"/>
      <path class="cls-2" d="M744.49,224.92c.79-.13,1.14.21,1.03,1.01-.06.32-.13.62-.23.9-.09.25-.24.43-.46.54-.22.11-.47.13-.75.07-.23-.05-.37-.18-.42-.39-.08-.33-.12-.68-.14-1.05-.04-.65.29-1.01.97-1.08Z"/>
    </g>
    <path class="cls-2" d="M431.91,164.07v15.85h-13.96v-56.46h20.62c8.7,0,14.89,1.52,18.55,4.55,3.66,3.03,5.49,8.12,5.49,15.26s-1.94,12.32-5.81,15.71c-3.87,3.39-9.86,5.09-17.96,5.09h-6.93ZM448.48,143.26c0-2.64-.72-4.5-2.16-5.58-1.44-1.08-4.02-1.62-7.75-1.62h-6.66v15.76h6.66c3.78,0,6.38-.63,7.79-1.89,1.41-1.26,2.12-3.48,2.12-6.66Z"/>
    <path class="cls-2" d="M489,158.84l-11.44-2.7c-4.56-1.08-7.67-2.73-9.32-4.95-1.65-2.22-2.48-5.4-2.48-9.55,0-6.54,1.72-11.36,5.18-14.45,3.45-3.09,8.81-4.64,16.07-4.64,3,0,5.67.12,8.01.36,2.34.24,4.5.66,6.48,1.26v12.52c-4.56-.78-7.7-1.23-9.41-1.35-1.71-.12-3.5-.18-5.36-.18-2.52,0-4.35.42-5.49,1.26-1.14.84-1.71,2.25-1.71,4.23,0,.96.18,1.7.54,2.21.36.51,1.05.89,2.07,1.13l10.81,2.52c3.12.72,5.37,1.43,6.75,2.12,1.38.69,2.49,1.58,3.33,2.66.96,1.14,1.67,2.61,2.12,4.41.45,1.8.67,3.99.67,6.57,0,6.54-1.74,11.27-5.22,14.18-3.48,2.91-8.89,4.37-16.21,4.37-3.72,0-7.26-.23-10.63-.68-3.36-.45-5.97-1-7.83-1.67v-13.24c2.4.78,5.25,1.4,8.56,1.85,3.3.45,6.6.68,9.91.68,2.64,0,4.47-.33,5.49-.99,1.02-.66,1.53-1.98,1.53-3.96,0-1.26-.17-2.17-.5-2.75-.33-.57-.98-.98-1.94-1.22Z"/>
    <path class="cls-2" d="M551.86,154.97v12.16h-6.12v12.79h-13.96v-12.79h-23.32v-12.16l6.39-31.52h13.42l-5.67,31.52h9.19v-21.61h13.96v21.61h6.12Z"/>
    <path class="cls-2" d="M575.35,179.6h-13.96v-56.46h13.96v21.52h19.81v-21.52h13.96v56.46h-13.96v-22.33h-19.81v22.33Z"/>
    <path class="cls-2" d="M658.73,157.36c0,8.35-1.68,14.29-5.04,17.83-3.36,3.54-9.01,5.31-16.93,5.31s-13.57-1.77-16.93-5.31c-3.36-3.54-5.04-9.49-5.04-17.83s1.68-14.29,5.04-17.83c3.36-3.54,9.01-5.31,16.93-5.31s13.57,1.77,16.93,5.31c3.36,3.54,5.04,9.49,5.04,17.83ZM628.29,157.18c0,4.56.5,7.5,1.49,8.83.99,1.32,3.32,1.98,6.98,1.98s5.99-.66,6.98-1.98c.99-1.32,1.49-4.26,1.49-8.83s-.5-7.5-1.49-8.83c-.99-1.32-3.32-1.98-6.98-1.98s-5.99.66-6.98,1.98c-.99,1.32-1.49,4.26-1.49,8.83Z"/>
    <path class="cls-2" d="M682.05,145.65c-2.52,0-4.22.2-5.09.59-.87.39-1.31,1.28-1.31,2.66,0,.54.17.98.5,1.31.33.33.79.53,1.4.59l10.72,1.44c3.48.48,5.93,1.61,7.34,3.38,1.41,1.77,2.12,4.58,2.12,8.42,0,5.76-1.29,9.95-3.87,12.56-2.58,2.61-7.08,3.92-13.51,3.92-3.54,0-6.74-.13-9.59-.41-2.85-.27-5.27-.64-7.25-1.12v-11.71c1.5.36,3.59.67,6.26.95,2.67.27,5.39.41,8.15.41,2.46,0,4.13-.25,5-.77.87-.51,1.31-1.49,1.31-2.93,0-.48-.15-.88-.45-1.22-.3-.33-.69-.52-1.17-.58l-11.08-1.44c-3.24-.42-5.6-1.61-7.07-3.56-1.47-1.95-2.21-4.85-2.21-8.69,0-5.04,1.59-8.84,4.77-11.39,3.18-2.55,7.89-3.83,14.14-3.83,2.46,0,4.74.06,6.84.18,2.1.12,4.32.36,6.66.72v11.26c-1.5-.24-3.36-.42-5.58-.54-2.22-.12-4.56-.18-7.02-.18Z"/>
    <path class="cls-2" d="M705.55,146.37h-5.22v-11.26h5.67l1.71-10.36h11.35v10.36h12.61v11.26h-12.61v17.29c0,1.68.43,2.81,1.31,3.38.87.57,2.6.86,5.18.86.9,0,2.01-.07,3.33-.22,1.32-.15,2.43-.32,3.33-.5v11.53c-.96.42-2.45.83-4.46,1.22-2.01.39-3.8.58-5.36.58-6,0-10.31-1.27-12.92-3.83-2.61-2.55-3.92-6.71-3.92-12.47v-17.83Z"/>
    <g class="cls-3">
      <path class="cls-2" d="M303.07,197.66c-7.73,0-14.02-6.05-14.02-13.49s6.29-13.48,14.02-13.48,14.02,6.05,14.03,13.48c0,7.44-6.3,13.49-14.03,13.49ZM276.91,222.81c-7.74,0-14.03-6.04-14.03-13.48s6.3-13.48,14.03-13.48,14.01,6.05,14.01,13.48-6.29,13.48-14.01,13.48ZM177.68,206.85h-13.97v13.01c0,4.77-4.37,8.8-9.53,8.8s-9.55-4.02-9.55-8.8v-13.01h-13.13c-4.95,0-9.14-4.2-9.14-9.18s4.19-9.18,9.14-9.18h13.13v-13.03c0-4.77,4.37-8.8,9.55-8.8s9.53,4.03,9.53,8.8v13.03h13.97c4.95,0,9.14,4.2,9.14,9.18,0,4.98-4.19,9.18-9.14,9.18ZM353.73,203.34c-12.21-44.78-26.28-74.23-58.69-82.7-4.95-1.29-9.6-1.92-14.24-1.92-9.78,0-17.65,2.83-25.28,5.58-7.01,2.52-14.85,5.29-25.69,6.23l-8.11.23s-24.5-3.41-33.03-6.48c-7.59-2.74-15.44-5.56-25.18-5.56-4.65,0-9.32.63-14.26,1.92-32.44,8.47-46.5,37.92-58.68,82.7-14.13,51.87-10.22,86.63,10.71,95.4,3.41,1.44,7,2.16,10.66,2.16,18.61,0,35.73-18.81,48.23-32.57l3.4-3.79c10.19-11.47,31.54-18.04,58.57-18.04,29.39,0,47.45,5.56,58.56,18.05l3.41,3.8c12.49,13.74,29.59,32.53,48.22,32.53,3.68,0,7.26-.73,10.65-2.15,20.93-8.76,24.85-43.53,10.75-95.4Z"/>
    </g>
    <path class="cls-2" d="M84.41,45.62c.26.4.47.82.64,1.27s.3.9.37,1.36c.08.47.11.93.09,1.41s-.08.94-.2,1.4c-.11.46-.27.9-.48,1.33-.2.43-.45.83-.74,1.22-.29.38-.61.73-.97,1.05-.36.32-.75.61-1.17.85-.42.25-.86.45-1.32.62-.46.16-.93.28-1.42.36-.48.07-.97.1-1.46.09-.49-.02-.97-.08-1.45-.19-.48-.11-.94-.26-1.38-.46-.45-.2-.87-.43-1.26-.71-.4-.28-.76-.59-1.1-.93-.33-.35-.63-.72-.89-1.12s-.47-.82-.64-1.27-.3-.9-.37-1.36c-.08-.47-.11-.93-.09-1.41.02-.47.08-.94.2-1.4.11-.46.27-.9.48-1.33.2-.43.45-.83.74-1.22.29-.38.61-.73.97-1.05.36-.32.75-.61,1.17-.85.42-.25.86-.45,1.32-.62.46-.16.93-.28,1.42-.36.48-.07.97-.1,1.46-.09.49.02.97.08,1.45.19.48.11.94.26,1.38.46s.87.43,1.26.71c.4.28.76.59,1.1.93.33.35.63.72.89,1.12Z"/>
    <path class="cls-2" d="M174.72,42.47c.26.4.47.82.64,1.27.17.44.3.9.37,1.36.08.47.11.93.09,1.41s-.08.94-.2,1.4-.27.9-.48,1.33c-.2.43-.45.83-.74,1.22-.29.38-.61.73-.97,1.05-.36.32-.75.61-1.17.85-.42.25-.86.45-1.32.62-.46.16-.93.28-1.42.36-.48.07-.97.1-1.46.09-.49-.02-.97-.08-1.45-.19-.48-.11-.94-.26-1.38-.46-.45-.2-.87-.43-1.26-.71-.4-.28-.76-.59-1.1-.93-.33-.35-.63-.72-.89-1.12-.26-.4-.47-.82-.64-1.27-.17-.44-.3-.9-.37-1.36-.08-.47-.11-.93-.09-1.41.02-.47.08-.94.2-1.4.11-.46.27-.9.48-1.33.2-.43.45-.83.74-1.22.29-.38.61-.73.97-1.05.36-.32.75-.61,1.17-.85.42-.25.86-.45,1.32-.62s.93-.28,1.42-.36c.48-.07.97-.1,1.46-.09.49.02.97.08,1.45.19.48.11.94.26,1.38.46.45.2.87.43,1.26.71.4.28.76.59,1.1.93.33.35.63.72.89,1.12Z"/>
    <path class="cls-2" d="M40.06,122.24c.26.4.47.82.64,1.27.17.44.3.9.37,1.36.08.47.11.93.09,1.41-.02.47-.08.94-.2,1.4-.11.46-.27.9-.48,1.33-.2.43-.45.83-.74,1.22-.29.38-.61.73-.97,1.05-.36.32-.75.61-1.17.85-.42.25-.86.45-1.32.62s-.93.28-1.42.36c-.48.07-.97.1-1.46.09-.49-.02-.97-.08-1.45-.19-.48-.11-.94-.26-1.38-.46-.45-.2-.87-.43-1.26-.71s-.76-.59-1.1-.93c-.33-.35-.63-.72-.89-1.12s-.47-.82-.64-1.27-.3-.9-.37-1.36c-.08-.47-.11-.93-.09-1.41.02-.47.08-.94.2-1.4.11-.46.27-.9.48-1.33.2-.43.45-.83.74-1.22s.61-.73.97-1.05c.36-.32.75-.61,1.17-.85.42-.25.86-.45,1.32-.62.46-.16.93-.28,1.42-.36.48-.07.97-.1,1.46-.09.49.02.97.08,1.45.19.48.11.94.26,1.38.46.45.2.87.43,1.26.71.4.28.76.59,1.1.93.33.35.63.72.89,1.12Z"/>
    <path class="cls-2" d="M141.39,74.68c.2.32.37.65.5.99.13.35.23.7.29,1.07.06.37.08.73.07,1.1-.01.37-.07.74-.16,1.1-.09.36-.21.71-.37,1.05-.16.34-.35.66-.58.96-.23.3-.48.58-.76.83-.28.25-.59.48-.92.67-.33.19-.67.36-1.03.49-.36.13-.73.22-1.11.28s-.76.08-1.15.07c-.39-.01-.77-.06-1.14-.15-.38-.09-.74-.21-1.09-.36-.35-.15-.68-.34-.99-.56-.31-.22-.6-.46-.86-.73-.26-.27-.49-.57-.7-.88-.2-.32-.37-.65-.5-.99-.13-.35-.23-.7-.29-1.07-.06-.37-.08-.73-.07-1.1.01-.37.07-.74.16-1.1.09-.36.21-.71.37-1.05.16-.34.35-.66.58-.96.23-.3.48-.58.76-.83s.59-.48.92-.67c.33-.19.67-.36,1.03-.49.36-.13.73-.22,1.11-.28.38-.06.76-.08,1.15-.07.39.01.77.06,1.14.15.38.09.74.21,1.09.36s.68.34.99.56c.31.22.6.46.86.73.26.27.49.57.7.88Z"/>
    <path class="cls-2" d="M81.6,108.92c.2.32.37.65.5.99.13.35.23.7.29,1.07.06.37.08.73.07,1.1-.01.37-.07.74-.16,1.1-.09.36-.21.71-.37,1.05-.16.34-.35.66-.58.96-.23.3-.48.58-.76.83s-.59.48-.92.67-.67.36-1.03.49c-.36.13-.73.22-1.11.28-.38.06-.76.08-1.15.07-.39-.01-.77-.06-1.14-.15-.38-.09-.74-.21-1.09-.36-.35-.15-.68-.34-.99-.56-.31-.22-.6-.46-.86-.73-.26-.27-.49-.57-.7-.88s-.37-.65-.5-.99c-.13-.35-.23-.7-.29-1.07s-.08-.73-.07-1.1c.01-.37.07-.74.16-1.1.09-.36.21-.71.37-1.05.16-.34.35-.66.58-.96.23-.3.48-.58.76-.83s.59-.48.92-.67c.33-.19.67-.36,1.03-.49.36-.13.73-.22,1.11-.28.38-.06.76-.08,1.15-.07.39.01.77.06,1.14.15.38.09.74.21,1.09.36.35.15.68.34.99.56.31.22.6.46.86.73.26.27.49.57.7.88Z"/>
    <path class="cls-2" d="M171.83,58.28l-.18,1.95-3.65,39.82c-.45,4.91-2.58,9.4-5.91,12.9l-20.82-27.67c-.57-.75-1.67-.36-1.51.55l6.26,34.2c-5.09-.17-10-2.35-13.45-6.22l-41.29-46.37-.09-.21-7.59-8.41,29.05,66.79c2.04,4.7,1.86,9.9-.27,14.35l-28.94-20.76c-.76-.55-1.63.22-1.18,1.05l16.39,30.43c-4.71,1.25-9.8,1.04-14.52-.76l-38.62-14.78-1.89-.72c-1.08-.42-1.96.92-1.1,1.68l47.91,42.43,4.7,4.16.16.15c.13.12.27.23.41.33.04.03.09.06.13.09.1.07.2.14.31.2.05.03.11.06.16.09.1.05.19.11.29.15.06.03.12.05.18.08.1.04.2.08.3.12.06.02.12.05.19.07.1.03.2.06.3.09.06.02.13.04.19.05.1.03.21.05.32.06.06.01.12.02.18.03.12.02.24.03.36.04.05,0,.1.01.15.01.17.01.33.01.5,0,.05,0,.09,0,.14,0,.12,0,.24-.01.36-.03.07,0,.14-.02.21-.03.1-.01.19-.03.29-.05.08-.01.15-.03.23-.05.09-.02.17-.04.26-.07.08-.02.16-.05.24-.07.08-.03.16-.05.24-.09.08-.03.16-.06.24-.1.07-.03.14-.07.22-.1.08-.04.16-.08.25-.12.06-.03.07-.16.13-.2.09-.05.12-.2.2-.25,0,0,0,0,.01,0,.05-.03.15.02.19-.02.09-.06.2-.08.28-.14.14-.11.28-.21.41-.33,7.34-7.23,24.14-23.02,39.29-31.99s37.38-16.28,47.4-19.34c.18-.05.35-.11.51-.18.1-.04.14-.17.23-.22.05-.02.05-.13.1-.16,0,0,0,0,.01,0,.09-.05.23-.01.32-.06.06-.04.15-.03.21-.06.08-.05.17-.08.24-.13.06-.05.14-.08.2-.13.07-.05.14-.1.2-.16.06-.05.13-.11.19-.16.06-.06.12-.11.18-.17.06-.06.12-.13.18-.19.05-.06.1-.11.15-.17.06-.07.12-.15.17-.22.04-.06.08-.11.12-.17.07-.1.13-.2.19-.3.02-.04.05-.08.07-.12.08-.14.15-.29.22-.43.02-.04.03-.09.05-.13.04-.11.09-.22.12-.33.02-.06.03-.11.05-.17.03-.1.06-.2.08-.3.01-.06.03-.12.04-.19.02-.1.04-.2.05-.3,0-.06.02-.13.02-.19.01-.1.02-.2.02-.31,0-.06,0-.13,0-.19,0-.11,0-.21-.01-.32,0-.06,0-.12-.01-.18-.01-.12-.03-.24-.05-.35,0-.05-.01-.1-.02-.15-.03-.17-.07-.34-.12-.5l-.06-.21-1.75-5.91-17.56-59.23h0s.01-.18.01-.18l-.3-1c-.32-1.08-1.95-.93-2.05.19Z"/>
    <polyline class="cls-1" points="147.03 0 219.69 113.42 72.66 200.52 0 87.1 147.03 0"/>
    <polyline class="cls-1" points="147.03 0 219.69 113.42 72.66 200.52 0 87.1 147.03 0"/>
    <path class="cls-2" d="M392.41,100.26v203.95h-4.82V100.26h4.82Z"/>
  </g>
</svg>